<mxfile host="app.diagrams.net" modified="2024-07-09T12:21:19.075Z" agent="Mozilla/5.0 (Windows NT 10.0; Win64; x64) AppleWebKit/537.36 (KHTML, like Gecko) Chrome/126.0.0.0 Safari/537.36" etag="b6oprgJePgqZeaKfhmar" version="24.6.4" type="device">
  <diagram name="Halaman-1" id="qZEX9r17VSvdaLq3SQqc">
    <mxGraphModel dx="4300" dy="1740" grid="1" gridSize="10" guides="1" tooltips="1" connect="1" arrows="1" fold="1" page="1" pageScale="1" pageWidth="827" pageHeight="1169" math="0" shadow="0">
      <root>
        <mxCell id="0" />
        <mxCell id="1" parent="0" />
        <mxCell id="7Zbi0GaOsBWuneSq0yRR-12" style="edgeStyle=orthogonalEdgeStyle;rounded=0;orthogonalLoop=1;jettySize=auto;html=1;exitX=1;exitY=0.5;exitDx=0;exitDy=0;" parent="1" source="7Zbi0GaOsBWuneSq0yRR-1" target="7Zbi0GaOsBWuneSq0yRR-11" edge="1">
          <mxGeometry relative="1" as="geometry" />
        </mxCell>
        <mxCell id="7Zbi0GaOsBWuneSq0yRR-1" value="Artikel" style="shape=document;whiteSpace=wrap;html=1;boundedLbl=1;" parent="1" vertex="1">
          <mxGeometry x="120" y="130" width="120" height="80" as="geometry" />
        </mxCell>
        <mxCell id="7Zbi0GaOsBWuneSq0yRR-6" style="edgeStyle=orthogonalEdgeStyle;rounded=0;orthogonalLoop=1;jettySize=auto;html=1;exitX=1;exitY=0.5;exitDx=0;exitDy=0;" parent="1" source="7Zbi0GaOsBWuneSq0yRR-3" target="7Zbi0GaOsBWuneSq0yRR-5" edge="1">
          <mxGeometry relative="1" as="geometry" />
        </mxCell>
        <mxCell id="7Zbi0GaOsBWuneSq0yRR-3" value="Praproses data" style="rounded=0;whiteSpace=wrap;html=1;" parent="1" vertex="1">
          <mxGeometry x="330" y="30" width="120" height="60" as="geometry" />
        </mxCell>
        <mxCell id="7Zbi0GaOsBWuneSq0yRR-10" style="edgeStyle=orthogonalEdgeStyle;rounded=0;orthogonalLoop=1;jettySize=auto;html=1;exitX=1;exitY=0.5;exitDx=0;exitDy=0;" parent="1" source="7Zbi0GaOsBWuneSq0yRR-5" target="7Zbi0GaOsBWuneSq0yRR-9" edge="1">
          <mxGeometry relative="1" as="geometry" />
        </mxCell>
        <mxCell id="7Zbi0GaOsBWuneSq0yRR-5" value="Pelatihan model" style="rounded=0;whiteSpace=wrap;html=1;" parent="1" vertex="1">
          <mxGeometry x="540" y="30" width="120" height="60" as="geometry" />
        </mxCell>
        <mxCell id="7Zbi0GaOsBWuneSq0yRR-8" style="edgeStyle=orthogonalEdgeStyle;rounded=0;orthogonalLoop=1;jettySize=auto;html=1;" parent="1" source="7Zbi0GaOsBWuneSq0yRR-14" target="7Zbi0GaOsBWuneSq0yRR-3" edge="1">
          <mxGeometry relative="1" as="geometry">
            <mxPoint x="230" y="60" as="sourcePoint" />
          </mxGeometry>
        </mxCell>
        <mxCell id="7Zbi0GaOsBWuneSq0yRR-20" style="edgeStyle=orthogonalEdgeStyle;rounded=0;orthogonalLoop=1;jettySize=auto;html=1;" parent="1" source="7Zbi0GaOsBWuneSq0yRR-9" target="7Zbi0GaOsBWuneSq0yRR-18" edge="1">
          <mxGeometry relative="1" as="geometry" />
        </mxCell>
        <mxCell id="7Zbi0GaOsBWuneSq0yRR-34" style="edgeStyle=orthogonalEdgeStyle;rounded=0;orthogonalLoop=1;jettySize=auto;html=1;exitX=0;exitY=0.75;exitDx=0;exitDy=0;entryX=0.5;entryY=0;entryDx=0;entryDy=0;" parent="1" source="7Zbi0GaOsBWuneSq0yRR-9" target="7Zbi0GaOsBWuneSq0yRR-27" edge="1">
          <mxGeometry relative="1" as="geometry">
            <Array as="points">
              <mxPoint x="680" y="80" />
              <mxPoint x="680" y="240" />
              <mxPoint x="615" y="240" />
            </Array>
          </mxGeometry>
        </mxCell>
        <mxCell id="7Zbi0GaOsBWuneSq0yRR-9" value="Model klasifikasi CEFR" style="shape=document;whiteSpace=wrap;html=1;boundedLbl=1;" parent="1" vertex="1">
          <mxGeometry x="750" y="20" width="120" height="80" as="geometry" />
        </mxCell>
        <mxCell id="7Zbi0GaOsBWuneSq0yRR-16" style="edgeStyle=orthogonalEdgeStyle;rounded=0;orthogonalLoop=1;jettySize=auto;html=1;exitX=1;exitY=0.5;exitDx=0;exitDy=0;" parent="1" source="7Zbi0GaOsBWuneSq0yRR-11" target="7Zbi0GaOsBWuneSq0yRR-15" edge="1">
          <mxGeometry relative="1" as="geometry" />
        </mxCell>
        <mxCell id="7Zbi0GaOsBWuneSq0yRR-11" value="Question Generation" style="rounded=0;whiteSpace=wrap;html=1;" parent="1" vertex="1">
          <mxGeometry x="330" y="140" width="120" height="60" as="geometry" />
        </mxCell>
        <mxCell id="7Zbi0GaOsBWuneSq0yRR-14" value="Dataset CEFR" style="shape=document;whiteSpace=wrap;html=1;boundedLbl=1;" parent="1" vertex="1">
          <mxGeometry x="120" y="20" width="120" height="80" as="geometry" />
        </mxCell>
        <mxCell id="7Zbi0GaOsBWuneSq0yRR-19" style="edgeStyle=orthogonalEdgeStyle;rounded=0;orthogonalLoop=1;jettySize=auto;html=1;exitX=1;exitY=0.5;exitDx=0;exitDy=0;" parent="1" source="7Zbi0GaOsBWuneSq0yRR-15" target="7Zbi0GaOsBWuneSq0yRR-18" edge="1">
          <mxGeometry relative="1" as="geometry" />
        </mxCell>
        <mxCell id="7Zbi0GaOsBWuneSq0yRR-15" value="Soal" style="shape=parallelogram;perimeter=parallelogramPerimeter;whiteSpace=wrap;html=1;fixedSize=1;" parent="1" vertex="1">
          <mxGeometry x="530" y="140" width="120" height="60" as="geometry" />
        </mxCell>
        <mxCell id="7Zbi0GaOsBWuneSq0yRR-17" value="Database" style="shape=cylinder3;whiteSpace=wrap;html=1;boundedLbl=1;backgroundOutline=1;size=15;" parent="1" vertex="1">
          <mxGeometry x="960" y="260" width="60" height="80" as="geometry" />
        </mxCell>
        <mxCell id="7Zbi0GaOsBWuneSq0yRR-25" style="edgeStyle=orthogonalEdgeStyle;rounded=0;orthogonalLoop=1;jettySize=auto;html=1;exitX=1;exitY=0.5;exitDx=0;exitDy=0;" parent="1" source="7Zbi0GaOsBWuneSq0yRR-18" target="7Zbi0GaOsBWuneSq0yRR-24" edge="1">
          <mxGeometry relative="1" as="geometry" />
        </mxCell>
        <mxCell id="7Zbi0GaOsBWuneSq0yRR-18" value="Prediksi level&amp;nbsp;&lt;div&gt;CEFR soal&lt;/div&gt;" style="rhombus;whiteSpace=wrap;html=1;" parent="1" vertex="1">
          <mxGeometry x="745" y="130" width="130" height="80" as="geometry" />
        </mxCell>
        <mxCell id="7Zbi0GaOsBWuneSq0yRR-26" style="edgeStyle=orthogonalEdgeStyle;rounded=0;orthogonalLoop=1;jettySize=auto;html=1;exitX=0.5;exitY=1;exitDx=0;exitDy=0;" parent="1" source="7Zbi0GaOsBWuneSq0yRR-24" target="7Zbi0GaOsBWuneSq0yRR-17" edge="1">
          <mxGeometry relative="1" as="geometry" />
        </mxCell>
        <mxCell id="7Zbi0GaOsBWuneSq0yRR-24" value="Soal berlabel level CEFR" style="shape=parallelogram;perimeter=parallelogramPerimeter;whiteSpace=wrap;html=1;fixedSize=1;" parent="1" vertex="1">
          <mxGeometry x="930" y="140" width="120" height="60" as="geometry" />
        </mxCell>
        <mxCell id="7Zbi0GaOsBWuneSq0yRR-36" style="edgeStyle=orthogonalEdgeStyle;rounded=0;orthogonalLoop=1;jettySize=auto;html=1;exitX=1;exitY=0.5;exitDx=0;exitDy=0;entryX=0;entryY=0.5;entryDx=0;entryDy=0;" parent="1" source="7Zbi0GaOsBWuneSq0yRR-27" target="7Zbi0GaOsBWuneSq0yRR-35" edge="1">
          <mxGeometry relative="1" as="geometry" />
        </mxCell>
        <mxCell id="7Zbi0GaOsBWuneSq0yRR-27" value="Prediksi level&amp;nbsp;&lt;div&gt;CEFR siswa&lt;/div&gt;" style="rhombus;whiteSpace=wrap;html=1;" parent="1" vertex="1">
          <mxGeometry x="550" y="260" width="130" height="80" as="geometry" />
        </mxCell>
        <mxCell id="7Zbi0GaOsBWuneSq0yRR-32" style="edgeStyle=orthogonalEdgeStyle;rounded=0;orthogonalLoop=1;jettySize=auto;html=1;exitX=1;exitY=0.5;exitDx=0;exitDy=0;" parent="1" source="7Zbi0GaOsBWuneSq0yRR-29" target="7Zbi0GaOsBWuneSq0yRR-27" edge="1">
          <mxGeometry relative="1" as="geometry" />
        </mxCell>
        <mxCell id="7Zbi0GaOsBWuneSq0yRR-29" value="Teks tes&amp;nbsp;&lt;div&gt;CEFR siswa&lt;/div&gt;" style="shape=parallelogram;perimeter=parallelogramPerimeter;whiteSpace=wrap;html=1;fixedSize=1;" parent="1" vertex="1">
          <mxGeometry x="330" y="270" width="120" height="60" as="geometry" />
        </mxCell>
        <mxCell id="7Zbi0GaOsBWuneSq0yRR-31" style="edgeStyle=orthogonalEdgeStyle;rounded=0;orthogonalLoop=1;jettySize=auto;html=1;exitX=1;exitY=0.5;exitDx=0;exitDy=0;" parent="1" source="7Zbi0GaOsBWuneSq0yRR-30" target="7Zbi0GaOsBWuneSq0yRR-29" edge="1">
          <mxGeometry relative="1" as="geometry" />
        </mxCell>
        <mxCell id="7Zbi0GaOsBWuneSq0yRR-30" value="Siswa" style="rounded=0;whiteSpace=wrap;html=1;" parent="1" vertex="1">
          <mxGeometry x="130" y="270" width="120" height="60" as="geometry" />
        </mxCell>
        <mxCell id="7Zbi0GaOsBWuneSq0yRR-37" style="edgeStyle=orthogonalEdgeStyle;rounded=0;orthogonalLoop=1;jettySize=auto;html=1;exitX=1;exitY=0.5;exitDx=0;exitDy=0;" parent="1" source="7Zbi0GaOsBWuneSq0yRR-35" target="7Zbi0GaOsBWuneSq0yRR-17" edge="1">
          <mxGeometry relative="1" as="geometry" />
        </mxCell>
        <mxCell id="7Zbi0GaOsBWuneSq0yRR-35" value="level CEFR siswa" style="shape=parallelogram;perimeter=parallelogramPerimeter;whiteSpace=wrap;html=1;fixedSize=1;" parent="1" vertex="1">
          <mxGeometry x="745" y="270" width="120" height="60" as="geometry" />
        </mxCell>
        <mxCell id="c0fXoVvvoDl5dwDOMRtq-3" style="edgeStyle=orthogonalEdgeStyle;rounded=0;orthogonalLoop=1;jettySize=auto;html=1;exitX=0.5;exitY=1;exitDx=0;exitDy=0;exitPerimeter=0;" edge="1" parent="1" source="c0fXoVvvoDl5dwDOMRtq-1" target="c0fXoVvvoDl5dwDOMRtq-2">
          <mxGeometry relative="1" as="geometry" />
        </mxCell>
        <mxCell id="c0fXoVvvoDl5dwDOMRtq-1" value="Main" style="strokeWidth=2;html=1;shape=mxgraph.flowchart.start_1;whiteSpace=wrap;" vertex="1" parent="1">
          <mxGeometry x="610" y="440" width="100" height="60" as="geometry" />
        </mxCell>
        <mxCell id="c0fXoVvvoDl5dwDOMRtq-5" style="edgeStyle=orthogonalEdgeStyle;rounded=0;orthogonalLoop=1;jettySize=auto;html=1;exitX=0.5;exitY=1;exitDx=0;exitDy=0;" edge="1" parent="1" source="c0fXoVvvoDl5dwDOMRtq-2" target="c0fXoVvvoDl5dwDOMRtq-4">
          <mxGeometry relative="1" as="geometry" />
        </mxCell>
        <mxCell id="c0fXoVvvoDl5dwDOMRtq-2" value="integer a, b, besar, kecil" style="shape=internalStorage;whiteSpace=wrap;html=1;dx=15;dy=15;rounded=1;arcSize=8;strokeWidth=2;" vertex="1" parent="1">
          <mxGeometry x="565" y="540" width="190" height="70" as="geometry" />
        </mxCell>
        <mxCell id="c0fXoVvvoDl5dwDOMRtq-7" style="edgeStyle=orthogonalEdgeStyle;rounded=0;orthogonalLoop=1;jettySize=auto;html=1;exitX=0.5;exitY=1;exitDx=0;exitDy=0;" edge="1" parent="1" source="c0fXoVvvoDl5dwDOMRtq-4" target="c0fXoVvvoDl5dwDOMRtq-6">
          <mxGeometry relative="1" as="geometry" />
        </mxCell>
        <mxCell id="c0fXoVvvoDl5dwDOMRtq-4" value="output:&quot;Masukan 2 buah bilagan" style="shape=parallelogram;html=1;strokeWidth=2;perimeter=parallelogramPerimeter;whiteSpace=wrap;rounded=1;arcSize=12;size=0.23;" vertex="1" parent="1">
          <mxGeometry x="575" y="660" width="170" height="60" as="geometry" />
        </mxCell>
        <mxCell id="c0fXoVvvoDl5dwDOMRtq-9" style="edgeStyle=orthogonalEdgeStyle;rounded=0;orthogonalLoop=1;jettySize=auto;html=1;exitX=0.5;exitY=1;exitDx=0;exitDy=0;" edge="1" parent="1" source="c0fXoVvvoDl5dwDOMRtq-6" target="c0fXoVvvoDl5dwDOMRtq-8">
          <mxGeometry relative="1" as="geometry" />
        </mxCell>
        <mxCell id="c0fXoVvvoDl5dwDOMRtq-6" value="input a" style="shape=parallelogram;html=1;strokeWidth=2;perimeter=parallelogramPerimeter;whiteSpace=wrap;rounded=1;arcSize=12;size=0.23;" vertex="1" parent="1">
          <mxGeometry x="610" y="760" width="100" height="60" as="geometry" />
        </mxCell>
        <mxCell id="c0fXoVvvoDl5dwDOMRtq-11" style="edgeStyle=orthogonalEdgeStyle;rounded=0;orthogonalLoop=1;jettySize=auto;html=1;exitX=0.5;exitY=1;exitDx=0;exitDy=0;" edge="1" parent="1" source="c0fXoVvvoDl5dwDOMRtq-8" target="c0fXoVvvoDl5dwDOMRtq-10">
          <mxGeometry relative="1" as="geometry" />
        </mxCell>
        <mxCell id="c0fXoVvvoDl5dwDOMRtq-8" value="input b" style="shape=parallelogram;html=1;strokeWidth=2;perimeter=parallelogramPerimeter;whiteSpace=wrap;rounded=1;arcSize=12;size=0.23;" vertex="1" parent="1">
          <mxGeometry x="610" y="860" width="100" height="60" as="geometry" />
        </mxCell>
        <mxCell id="c0fXoVvvoDl5dwDOMRtq-13" style="edgeStyle=orthogonalEdgeStyle;rounded=0;orthogonalLoop=1;jettySize=auto;html=1;exitX=1;exitY=0.5;exitDx=0;exitDy=0;exitPerimeter=0;entryX=0.5;entryY=0;entryDx=0;entryDy=0;" edge="1" parent="1" source="c0fXoVvvoDl5dwDOMRtq-10" target="c0fXoVvvoDl5dwDOMRtq-12">
          <mxGeometry relative="1" as="geometry" />
        </mxCell>
        <mxCell id="c0fXoVvvoDl5dwDOMRtq-14" value="True" style="edgeLabel;html=1;align=center;verticalAlign=middle;resizable=0;points=[];" vertex="1" connectable="0" parent="c0fXoVvvoDl5dwDOMRtq-13">
          <mxGeometry x="-0.3405" y="-2" relative="1" as="geometry">
            <mxPoint as="offset" />
          </mxGeometry>
        </mxCell>
        <mxCell id="c0fXoVvvoDl5dwDOMRtq-20" style="edgeStyle=orthogonalEdgeStyle;rounded=0;orthogonalLoop=1;jettySize=auto;html=1;exitX=0;exitY=0.5;exitDx=0;exitDy=0;exitPerimeter=0;entryX=0.5;entryY=0;entryDx=0;entryDy=0;" edge="1" parent="1" source="c0fXoVvvoDl5dwDOMRtq-10" target="c0fXoVvvoDl5dwDOMRtq-18">
          <mxGeometry relative="1" as="geometry" />
        </mxCell>
        <mxCell id="c0fXoVvvoDl5dwDOMRtq-21" value="False" style="edgeLabel;html=1;align=center;verticalAlign=middle;resizable=0;points=[];" vertex="1" connectable="0" parent="c0fXoVvvoDl5dwDOMRtq-20">
          <mxGeometry x="-0.2668" y="3" relative="1" as="geometry">
            <mxPoint as="offset" />
          </mxGeometry>
        </mxCell>
        <mxCell id="c0fXoVvvoDl5dwDOMRtq-10" value="a&amp;gt;b" style="strokeWidth=2;html=1;shape=mxgraph.flowchart.decision;whiteSpace=wrap;" vertex="1" parent="1">
          <mxGeometry x="610" y="960" width="100" height="100" as="geometry" />
        </mxCell>
        <mxCell id="c0fXoVvvoDl5dwDOMRtq-16" style="edgeStyle=orthogonalEdgeStyle;rounded=0;orthogonalLoop=1;jettySize=auto;html=1;exitX=0.5;exitY=1;exitDx=0;exitDy=0;" edge="1" parent="1" source="c0fXoVvvoDl5dwDOMRtq-12" target="c0fXoVvvoDl5dwDOMRtq-15">
          <mxGeometry relative="1" as="geometry" />
        </mxCell>
        <mxCell id="c0fXoVvvoDl5dwDOMRtq-12" value="besar=a" style="rounded=1;whiteSpace=wrap;html=1;absoluteArcSize=1;arcSize=14;strokeWidth=2;" vertex="1" parent="1">
          <mxGeometry x="740" y="1109" width="135" height="60" as="geometry" />
        </mxCell>
        <mxCell id="c0fXoVvvoDl5dwDOMRtq-24" style="edgeStyle=orthogonalEdgeStyle;rounded=0;orthogonalLoop=1;jettySize=auto;html=1;exitX=0.5;exitY=1;exitDx=0;exitDy=0;" edge="1" parent="1" source="c0fXoVvvoDl5dwDOMRtq-15" target="c0fXoVvvoDl5dwDOMRtq-22">
          <mxGeometry relative="1" as="geometry" />
        </mxCell>
        <mxCell id="c0fXoVvvoDl5dwDOMRtq-15" value="kecil=b" style="rounded=1;whiteSpace=wrap;html=1;absoluteArcSize=1;arcSize=14;strokeWidth=2;" vertex="1" parent="1">
          <mxGeometry x="740" y="1220" width="135" height="60" as="geometry" />
        </mxCell>
        <mxCell id="c0fXoVvvoDl5dwDOMRtq-17" style="edgeStyle=orthogonalEdgeStyle;rounded=0;orthogonalLoop=1;jettySize=auto;html=1;exitX=0.5;exitY=1;exitDx=0;exitDy=0;" edge="1" parent="1" source="c0fXoVvvoDl5dwDOMRtq-18" target="c0fXoVvvoDl5dwDOMRtq-19">
          <mxGeometry relative="1" as="geometry" />
        </mxCell>
        <mxCell id="c0fXoVvvoDl5dwDOMRtq-18" value="besar=b" style="rounded=1;whiteSpace=wrap;html=1;absoluteArcSize=1;arcSize=14;strokeWidth=2;" vertex="1" parent="1">
          <mxGeometry x="450" y="1109" width="135" height="60" as="geometry" />
        </mxCell>
        <mxCell id="c0fXoVvvoDl5dwDOMRtq-25" style="edgeStyle=orthogonalEdgeStyle;rounded=0;orthogonalLoop=1;jettySize=auto;html=1;exitX=0.5;exitY=1;exitDx=0;exitDy=0;entryX=0.5;entryY=0;entryDx=0;entryDy=0;" edge="1" parent="1" source="c0fXoVvvoDl5dwDOMRtq-19" target="c0fXoVvvoDl5dwDOMRtq-22">
          <mxGeometry relative="1" as="geometry" />
        </mxCell>
        <mxCell id="c0fXoVvvoDl5dwDOMRtq-19" value="kecil=a" style="rounded=1;whiteSpace=wrap;html=1;absoluteArcSize=1;arcSize=14;strokeWidth=2;" vertex="1" parent="1">
          <mxGeometry x="450" y="1220" width="135" height="60" as="geometry" />
        </mxCell>
        <mxCell id="c0fXoVvvoDl5dwDOMRtq-27" style="edgeStyle=orthogonalEdgeStyle;rounded=0;orthogonalLoop=1;jettySize=auto;html=1;exitX=0.5;exitY=1;exitDx=0;exitDy=0;" edge="1" parent="1" source="c0fXoVvvoDl5dwDOMRtq-22" target="c0fXoVvvoDl5dwDOMRtq-26">
          <mxGeometry relative="1" as="geometry" />
        </mxCell>
        <mxCell id="c0fXoVvvoDl5dwDOMRtq-22" value="Output kecil, &quot; Lebih kecil dari &quot;, besar" style="shape=parallelogram;html=1;strokeWidth=2;perimeter=parallelogramPerimeter;whiteSpace=wrap;rounded=1;arcSize=12;size=0.23;" vertex="1" parent="1">
          <mxGeometry x="550" y="1350" width="240" height="60" as="geometry" />
        </mxCell>
        <mxCell id="c0fXoVvvoDl5dwDOMRtq-26" value="end" style="strokeWidth=2;html=1;shape=mxgraph.flowchart.start_1;whiteSpace=wrap;" vertex="1" parent="1">
          <mxGeometry x="620" y="1460" width="100" height="60" as="geometry" />
        </mxCell>
      </root>
    </mxGraphModel>
  </diagram>
</mxfile>
